<mxfile host="app.diagrams.net" modified="2021-11-21T10:37:54.271Z" agent="5.0 (Windows NT 10.0; Win64; x64) AppleWebKit/537.36 (KHTML, like Gecko) Chrome/95.0.4638.69 Safari/537.36 Edg/95.0.1020.53" etag="WXNjledhTrgaSnEJN2g6" version="15.8.3" type="github">
  <diagram id="gD5msPuNiPiTAfF6Eoq4" name="Page-1">
    <mxGraphModel dx="1038" dy="579" grid="1" gridSize="10" guides="1" tooltips="1" connect="1" arrows="1" fold="1" page="1" pageScale="1" pageWidth="827" pageHeight="1169" math="0" shadow="0">
      <root>
        <mxCell id="0" />
        <mxCell id="1" parent="0" />
        <mxCell id="e1ycje_ZyLDIXfNrTQiv-4" value="" style="edgeStyle=orthogonalEdgeStyle;rounded=0;orthogonalLoop=1;jettySize=auto;html=1;" edge="1" parent="1" source="e1ycje_ZyLDIXfNrTQiv-1" target="e1ycje_ZyLDIXfNrTQiv-3">
          <mxGeometry relative="1" as="geometry" />
        </mxCell>
        <mxCell id="e1ycje_ZyLDIXfNrTQiv-1" value="플랫폼 가입" style="rounded=1;whiteSpace=wrap;html=1;" vertex="1" parent="1">
          <mxGeometry x="40" y="70" width="120" height="50" as="geometry" />
        </mxCell>
        <mxCell id="e1ycje_ZyLDIXfNrTQiv-2" value="&amp;lt;DMOA Reseller Flow&amp;gt;" style="text;html=1;resizable=0;autosize=1;align=center;verticalAlign=middle;points=[];fillColor=none;strokeColor=none;rounded=0;" vertex="1" parent="1">
          <mxGeometry x="30" y="20" width="140" height="20" as="geometry" />
        </mxCell>
        <mxCell id="e1ycje_ZyLDIXfNrTQiv-6" value="" style="edgeStyle=orthogonalEdgeStyle;rounded=0;orthogonalLoop=1;jettySize=auto;html=1;" edge="1" parent="1" source="e1ycje_ZyLDIXfNrTQiv-3" target="e1ycje_ZyLDIXfNrTQiv-5">
          <mxGeometry relative="1" as="geometry" />
        </mxCell>
        <mxCell id="e1ycje_ZyLDIXfNrTQiv-3" value="내부직원 등록" style="rounded=0;whiteSpace=wrap;html=1;" vertex="1" parent="1">
          <mxGeometry x="40" y="170" width="120" height="40" as="geometry" />
        </mxCell>
        <mxCell id="e1ycje_ZyLDIXfNrTQiv-8" value="" style="edgeStyle=orthogonalEdgeStyle;rounded=0;orthogonalLoop=1;jettySize=auto;html=1;" edge="1" parent="1" source="e1ycje_ZyLDIXfNrTQiv-5" target="e1ycje_ZyLDIXfNrTQiv-7">
          <mxGeometry relative="1" as="geometry" />
        </mxCell>
        <mxCell id="e1ycje_ZyLDIXfNrTQiv-5" value="상품검색" style="rounded=0;whiteSpace=wrap;html=1;" vertex="1" parent="1">
          <mxGeometry x="40" y="260" width="120" height="40" as="geometry" />
        </mxCell>
        <mxCell id="e1ycje_ZyLDIXfNrTQiv-10" value="" style="edgeStyle=orthogonalEdgeStyle;rounded=0;orthogonalLoop=1;jettySize=auto;html=1;" edge="1" parent="1" source="e1ycje_ZyLDIXfNrTQiv-7" target="e1ycje_ZyLDIXfNrTQiv-9">
          <mxGeometry relative="1" as="geometry" />
        </mxCell>
        <mxCell id="e1ycje_ZyLDIXfNrTQiv-7" value="단가 및 총액 확인" style="rounded=0;whiteSpace=wrap;html=1;" vertex="1" parent="1">
          <mxGeometry x="40" y="350" width="120" height="40" as="geometry" />
        </mxCell>
        <mxCell id="e1ycje_ZyLDIXfNrTQiv-12" value="" style="edgeStyle=orthogonalEdgeStyle;rounded=0;orthogonalLoop=1;jettySize=auto;html=1;" edge="1" parent="1" source="e1ycje_ZyLDIXfNrTQiv-9" target="e1ycje_ZyLDIXfNrTQiv-11">
          <mxGeometry relative="1" as="geometry" />
        </mxCell>
        <mxCell id="e1ycje_ZyLDIXfNrTQiv-9" value="End-User 정보 입력" style="rounded=0;whiteSpace=wrap;html=1;" vertex="1" parent="1">
          <mxGeometry x="40" y="440" width="120" height="40" as="geometry" />
        </mxCell>
        <mxCell id="e1ycje_ZyLDIXfNrTQiv-14" value="" style="edgeStyle=orthogonalEdgeStyle;rounded=0;orthogonalLoop=1;jettySize=auto;html=1;" edge="1" parent="1" source="e1ycje_ZyLDIXfNrTQiv-11" target="e1ycje_ZyLDIXfNrTQiv-13">
          <mxGeometry relative="1" as="geometry" />
        </mxCell>
        <mxCell id="e1ycje_ZyLDIXfNrTQiv-11" value="발주신청" style="rounded=0;whiteSpace=wrap;html=1;" vertex="1" parent="1">
          <mxGeometry x="40" y="530" width="120" height="40" as="geometry" />
        </mxCell>
        <mxCell id="e1ycje_ZyLDIXfNrTQiv-16" value="" style="edgeStyle=orthogonalEdgeStyle;rounded=0;orthogonalLoop=1;jettySize=auto;html=1;" edge="1" parent="1" source="e1ycje_ZyLDIXfNrTQiv-13" target="e1ycje_ZyLDIXfNrTQiv-15">
          <mxGeometry relative="1" as="geometry" />
        </mxCell>
        <mxCell id="e1ycje_ZyLDIXfNrTQiv-13" value="총판 승인완료" style="rounded=0;whiteSpace=wrap;html=1;" vertex="1" parent="1">
          <mxGeometry x="220" y="530" width="120" height="40" as="geometry" />
        </mxCell>
        <mxCell id="e1ycje_ZyLDIXfNrTQiv-18" value="" style="edgeStyle=orthogonalEdgeStyle;rounded=0;orthogonalLoop=1;jettySize=auto;html=1;" edge="1" parent="1" source="e1ycje_ZyLDIXfNrTQiv-15" target="e1ycje_ZyLDIXfNrTQiv-17">
          <mxGeometry relative="1" as="geometry" />
        </mxCell>
        <mxCell id="e1ycje_ZyLDIXfNrTQiv-15" value="벤더 발주완료" style="rounded=0;whiteSpace=wrap;html=1;" vertex="1" parent="1">
          <mxGeometry x="390" y="530" width="120" height="40" as="geometry" />
        </mxCell>
        <mxCell id="e1ycje_ZyLDIXfNrTQiv-17" value="라이센스 전달" style="rounded=0;whiteSpace=wrap;html=1;" vertex="1" parent="1">
          <mxGeometry x="560" y="530" width="120" height="40" as="geometry" />
        </mxCell>
        <mxCell id="e1ycje_ZyLDIXfNrTQiv-19" value="기술지원" style="rounded=0;whiteSpace=wrap;html=1;" vertex="1" parent="1">
          <mxGeometry x="720" y="530" width="120" height="40" as="geometry" />
        </mxCell>
        <mxCell id="e1ycje_ZyLDIXfNrTQiv-20" value="" style="endArrow=none;dashed=1;html=1;rounded=0;" edge="1" parent="1">
          <mxGeometry width="50" height="50" relative="1" as="geometry">
            <mxPoint x="680" y="550" as="sourcePoint" />
            <mxPoint x="720" y="550" as="targetPoint" />
          </mxGeometry>
        </mxCell>
      </root>
    </mxGraphModel>
  </diagram>
</mxfile>
